<mxfile host="app.diagrams.net" agent="Mozilla/5.0 (Windows NT 10.0; Win64; x64) AppleWebKit/537.36 (KHTML, like Gecko) Chrome/131.0.0.0 Safari/537.36 Edg/131.0.0.0" version="24.9.3">
  <diagram name="PBL1" id="ZU354eVgSXwGBXTb50TK">
    <mxGraphModel dx="1307" dy="405" grid="0" gridSize="10" guides="1" tooltips="1" connect="1" arrows="1" fold="1" page="1" pageScale="1" pageWidth="850" pageHeight="1100" math="0" shadow="0">
      <root>
        <object label="" id="0">
          <mxCell />
        </object>
        <mxCell id="1" parent="0" />
        <mxCell id="Q2bhWkMLcRi6aNMs0Omj-1" value="LinkList" style="swimlane;fontStyle=1;align=center;verticalAlign=top;childLayout=stackLayout;horizontal=1;startSize=26;horizontalStack=0;resizeParent=1;resizeParentMax=0;resizeLast=0;collapsible=1;marginBottom=0;whiteSpace=wrap;html=1;labelBackgroundColor=none;fillColor=#FFE45E;strokeColor=#FF6392;fontColor=#5AA9E6;sketch=1;curveFitting=1;jiggle=2;" parent="1" vertex="1">
          <mxGeometry x="1483" y="336" width="265" height="638" as="geometry" />
        </mxCell>
        <mxCell id="Q2bhWkMLcRi6aNMs0Omj-2" value="&lt;p class=&quot;MsoNormal&quot;&gt;- Node&amp;lt;T&amp;gt;* header;&lt;/p&gt;&lt;p class=&quot;MsoNormal&quot;&gt;- int size;&lt;/p&gt;&lt;p class=&quot;MsoNormal&quot;&gt;- int page;&lt;/p&gt;" style="text;align=left;verticalAlign=top;spacingLeft=4;spacingRight=4;overflow=hidden;rotatable=0;points=[[0,0.5],[1,0.5]];portConstraint=eastwest;whiteSpace=wrap;html=1;labelBackgroundColor=none;fontColor=#5AA9E6;sketch=1;curveFitting=1;jiggle=2;" parent="Q2bhWkMLcRi6aNMs0Omj-1" vertex="1">
          <mxGeometry y="26" width="265" height="93" as="geometry" />
        </mxCell>
        <mxCell id="Q2bhWkMLcRi6aNMs0Omj-3" value="" style="line;strokeWidth=1;fillColor=none;align=left;verticalAlign=middle;spacingTop=-1;spacingLeft=3;spacingRight=3;rotatable=0;labelPosition=right;points=[];portConstraint=eastwest;strokeColor=#FF6392;labelBackgroundColor=none;fontColor=#5AA9E6;sketch=1;curveFitting=1;jiggle=2;" parent="Q2bhWkMLcRi6aNMs0Omj-1" vertex="1">
          <mxGeometry y="119" width="265" height="8" as="geometry" />
        </mxCell>
        <mxCell id="Q2bhWkMLcRi6aNMs0Omj-4" value="&lt;p class=&quot;MsoNormal&quot;&gt;+ LinkedList();&lt;/p&gt;&lt;p class=&quot;MsoNormal&quot;&gt;&amp;nbsp;+ virtual ~LinkedList();&lt;/p&gt;&lt;p class=&quot;MsoNormal&quot;&gt;&amp;nbsp;+ int sizeList();&lt;/p&gt;&lt;p class=&quot;MsoNormal&quot;&gt;&amp;nbsp;+ void reset();&lt;/p&gt;&lt;p class=&quot;MsoNormal&quot;&gt;&amp;nbsp;+ void backUpInformation();&lt;/p&gt;&lt;p class=&quot;MsoNormal&quot;&gt;&amp;nbsp;+ void updateQuantity();&lt;/p&gt;&lt;p class=&quot;MsoNormal&quot;&gt;+ Node&amp;lt;T&amp;gt;* getHead();&lt;/p&gt;&lt;p class=&quot;MsoNormal&quot;&gt;+ void insert();&lt;/p&gt;&lt;p class=&quot;MsoNormal&quot;&gt;+ bool insertCart();&lt;/p&gt;&lt;p class=&quot;MsoNormal&quot;&gt;+ void erase();&lt;/p&gt;&lt;p class=&quot;MsoNormal&quot;&gt;+ int getPage();&lt;/p&gt;&lt;p class=&quot;MsoNormal&quot;&gt;+ int getPageMax();&lt;/p&gt;&lt;p class=&quot;MsoNormal&quot;&gt;+ void setPage(int page);&lt;/p&gt;&lt;p class=&quot;MsoNormal&quot;&gt;+ void displayImages();&lt;/p&gt;&lt;p class=&quot;MsoNormal&quot;&gt;+ void displayCart();&lt;/p&gt;&lt;p class=&quot;MsoNormal&quot;&gt;+ long long total();&lt;/p&gt;&lt;p class=&quot;MsoNormal&quot;&gt;+ Node&amp;lt;T&amp;gt;* GetNodeFromAnimal();&lt;/p&gt;&lt;p class=&quot;MsoNormal&quot;&gt;+ Node&amp;lt;T&amp;gt;* GetNodeFromCart();&lt;/p&gt;&lt;p class=&quot;MsoNormal&quot;&gt;+ void deleteNodeInCart();&lt;/p&gt;" style="text;strokeColor=none;fillColor=none;align=left;verticalAlign=top;spacingLeft=4;spacingRight=4;overflow=hidden;rotatable=0;points=[[0,0.5],[1,0.5]];portConstraint=eastwest;whiteSpace=wrap;html=1;labelBackgroundColor=none;fontColor=#5AA9E6;sketch=1;curveFitting=1;jiggle=2;" parent="Q2bhWkMLcRi6aNMs0Omj-1" vertex="1">
          <mxGeometry y="127" width="265" height="511" as="geometry" />
        </mxCell>
        <mxCell id="Q2bhWkMLcRi6aNMs0Omj-5" style="edgeStyle=orthogonalEdgeStyle;rounded=0;orthogonalLoop=1;jettySize=auto;html=1;exitX=1;exitY=0.5;exitDx=0;exitDy=0;fontSize=12;startSize=8;endSize=8;curved=1;labelBackgroundColor=none;strokeColor=#FF6392;fontColor=default;sketch=1;curveFitting=1;jiggle=2;" parent="Q2bhWkMLcRi6aNMs0Omj-1" source="Q2bhWkMLcRi6aNMs0Omj-2" target="Q2bhWkMLcRi6aNMs0Omj-2" edge="1">
          <mxGeometry relative="1" as="geometry" />
        </mxCell>
        <mxCell id="Q2bhWkMLcRi6aNMs0Omj-15" value="Dog" style="swimlane;fontStyle=1;align=center;verticalAlign=top;childLayout=stackLayout;horizontal=1;startSize=26;horizontalStack=0;resizeParent=1;resizeParentMax=0;resizeLast=0;collapsible=1;marginBottom=0;whiteSpace=wrap;html=1;labelBackgroundColor=none;fillColor=#FFE45E;strokeColor=#FF6392;fontColor=#5AA9E6;sketch=1;curveFitting=1;jiggle=2;" parent="1" vertex="1">
          <mxGeometry x="-32" y="139" width="260" height="450" as="geometry" />
        </mxCell>
        <mxCell id="Q2bhWkMLcRi6aNMs0Omj-16" value="&lt;p class=&quot;MsoNormal&quot;&gt;- const char *purposeOfRaising;&amp;nbsp;&amp;nbsp;&lt;/p&gt;&lt;p class=&quot;MsoNormal&quot;&gt;&lt;span style=&quot;background-color: initial;&quot;&gt;&amp;nbsp;-const char *levelOfTraining;&amp;nbsp;&amp;nbsp;&lt;/span&gt;&lt;/p&gt;&lt;p class=&quot;MsoNormal&quot;&gt;- const char *needForExercise;&amp;nbsp; &amp;nbsp;&amp;nbsp;&lt;/p&gt;" style="text;align=left;verticalAlign=top;spacingLeft=4;spacingRight=4;overflow=hidden;rotatable=0;points=[[0,0.5],[1,0.5]];portConstraint=eastwest;whiteSpace=wrap;html=1;labelBackgroundColor=none;fontColor=#5AA9E6;sketch=1;curveFitting=1;jiggle=2;" parent="Q2bhWkMLcRi6aNMs0Omj-15" vertex="1">
          <mxGeometry y="26" width="260" height="108" as="geometry" />
        </mxCell>
        <mxCell id="Q2bhWkMLcRi6aNMs0Omj-17" value="" style="line;strokeWidth=1;fillColor=none;align=left;verticalAlign=middle;spacingTop=-1;spacingLeft=3;spacingRight=3;rotatable=0;labelPosition=right;points=[];portConstraint=eastwest;strokeColor=#FF6392;labelBackgroundColor=none;fontColor=#5AA9E6;sketch=1;curveFitting=1;jiggle=2;" parent="Q2bhWkMLcRi6aNMs0Omj-15" vertex="1">
          <mxGeometry y="134" width="260" height="8" as="geometry" />
        </mxCell>
        <mxCell id="Q2bhWkMLcRi6aNMs0Omj-20" value="&lt;p class=&quot;MsoNormal&quot;&gt;+ Dog();&lt;/p&gt;&lt;p class=&quot;MsoNormal&quot;&gt;+ virtual ~Dog();&lt;/p&gt;&lt;p class=&quot;MsoNormal&quot;&gt;+ string GetType() const;&lt;/p&gt;&lt;p class=&quot;MsoNormal&quot;&gt;+ const char *getPurposeOfRaising() const;&lt;/p&gt;&lt;p class=&quot;MsoNormal&quot;&gt;+ const char *getLevelOfTraining() const;&lt;/p&gt;&lt;p class=&quot;MsoNormal&quot;&gt;+ const char *getNeedForExercise() const;&lt;/p&gt;&lt;p class=&quot;MsoNormal&quot;&gt;+ vector&amp;lt;char*&amp;gt; getAttributes();&lt;/p&gt;&lt;p class=&quot;MsoNormal&quot;&gt;+ vector&amp;lt;string&amp;gt; getAllAttributes();&lt;/p&gt;&lt;p class=&quot;MsoNormal&quot;&gt;+ static void initializeDogList();&lt;/p&gt;&lt;p class=&quot;MsoNormal&quot;&gt;+ void DisplayImage();&lt;/p&gt;&lt;p class=&quot;MsoNormal&quot;&gt;+ void displayInformation();&lt;/p&gt;" style="text;strokeColor=none;fillColor=none;align=left;verticalAlign=top;spacingLeft=4;spacingRight=4;overflow=hidden;rotatable=0;points=[[0,0.5],[1,0.5]];portConstraint=eastwest;whiteSpace=wrap;html=1;labelBackgroundColor=none;fontColor=#5AA9E6;sketch=1;curveFitting=1;jiggle=2;" parent="Q2bhWkMLcRi6aNMs0Omj-15" vertex="1">
          <mxGeometry y="142" width="260" height="308" as="geometry" />
        </mxCell>
        <mxCell id="Q2bhWkMLcRi6aNMs0Omj-18" style="edgeStyle=orthogonalEdgeStyle;rounded=0;orthogonalLoop=1;jettySize=auto;html=1;exitX=1;exitY=0.5;exitDx=0;exitDy=0;fontSize=12;startSize=8;endSize=8;curved=1;labelBackgroundColor=none;strokeColor=#FF6392;fontColor=default;sketch=1;curveFitting=1;jiggle=2;" parent="Q2bhWkMLcRi6aNMs0Omj-15" source="Q2bhWkMLcRi6aNMs0Omj-16" target="Q2bhWkMLcRi6aNMs0Omj-16" edge="1">
          <mxGeometry relative="1" as="geometry" />
        </mxCell>
        <mxCell id="Q2bhWkMLcRi6aNMs0Omj-21" value="Animal" style="swimlane;fontStyle=1;align=center;verticalAlign=top;childLayout=stackLayout;horizontal=1;startSize=26;horizontalStack=0;resizeParent=1;resizeParentMax=0;resizeLast=0;collapsible=1;marginBottom=0;whiteSpace=wrap;html=1;labelBackgroundColor=none;fillColor=#FFE45E;strokeColor=#FF6392;fontColor=#5AA9E6;sketch=1;curveFitting=1;jiggle=2;" parent="1" vertex="1">
          <mxGeometry x="-736" y="424" width="277" height="800" as="geometry" />
        </mxCell>
        <mxCell id="Q2bhWkMLcRi6aNMs0Omj-22" value="&lt;p class=&quot;MsoNormal&quot;&gt;- const char *name;&lt;/p&gt;&lt;p class=&quot;MsoNormal&quot;&gt;- const char *imageAnimal;&lt;/p&gt;&lt;p class=&quot;MsoNormal&quot;&gt;- const char *origin;&amp;nbsp;&amp;nbsp;&lt;/p&gt;&lt;p class=&quot;MsoNormal&quot;&gt;- unsigned int averageAge;&amp;nbsp;&amp;nbsp;&lt;/p&gt;&lt;p class=&quot;MsoNormal&quot;&gt;- const char *furType;&lt;/p&gt;&lt;p class=&quot;MsoNormal&quot;&gt;- unsigned int quantity;&amp;nbsp; &amp;nbsp;&lt;/p&gt;&lt;p class=&quot;MsoNormal&quot;&gt;- unsigned int sellingPrice;&amp;nbsp;&amp;nbsp;&lt;/p&gt;&lt;p class=&quot;MsoNormal&quot;&gt;-unsigned int size;&amp;nbsp; &amp;nbsp;&amp;nbsp;&lt;/p&gt;" style="text;align=left;verticalAlign=top;spacingLeft=4;spacingRight=4;overflow=hidden;rotatable=0;points=[[0,0.5],[1,0.5]];portConstraint=eastwest;whiteSpace=wrap;html=1;labelBackgroundColor=none;fontColor=#5AA9E6;sketch=1;curveFitting=1;jiggle=2;" parent="Q2bhWkMLcRi6aNMs0Omj-21" vertex="1">
          <mxGeometry y="26" width="277" height="226" as="geometry" />
        </mxCell>
        <mxCell id="Q2bhWkMLcRi6aNMs0Omj-23" value="" style="line;strokeWidth=1;fillColor=none;align=left;verticalAlign=middle;spacingTop=-1;spacingLeft=3;spacingRight=3;rotatable=0;labelPosition=right;points=[];portConstraint=eastwest;strokeColor=#FF6392;labelBackgroundColor=none;fontColor=#5AA9E6;sketch=1;curveFitting=1;jiggle=2;" parent="Q2bhWkMLcRi6aNMs0Omj-21" vertex="1">
          <mxGeometry y="252" width="277" height="8" as="geometry" />
        </mxCell>
        <mxCell id="Q2bhWkMLcRi6aNMs0Omj-24" style="edgeStyle=orthogonalEdgeStyle;rounded=0;orthogonalLoop=1;jettySize=auto;html=1;exitX=1;exitY=0.5;exitDx=0;exitDy=0;fontSize=12;startSize=8;endSize=8;curved=1;labelBackgroundColor=none;strokeColor=#FF6392;fontColor=default;sketch=1;curveFitting=1;jiggle=2;" parent="Q2bhWkMLcRi6aNMs0Omj-21" source="Q2bhWkMLcRi6aNMs0Omj-22" target="Q2bhWkMLcRi6aNMs0Omj-22" edge="1">
          <mxGeometry relative="1" as="geometry" />
        </mxCell>
        <mxCell id="Q2bhWkMLcRi6aNMs0Omj-25" value="&lt;p style=&quot;line-height: 100%;&quot; class=&quot;MsoNormal&quot;&gt;&lt;font&gt;- void ImageBorder();&lt;/font&gt;&lt;/p&gt;&lt;p style=&quot;line-height: 100%;&quot; class=&quot;MsoNormal&quot;&gt;&lt;font&gt;- void ImageBorderInfor();&lt;/font&gt;&lt;/p&gt;&lt;p style=&quot;line-height: 100%;&quot; class=&quot;MsoNormal&quot;&gt;&lt;font&gt;- void purchaseOptions();&lt;/font&gt;&lt;/p&gt;&lt;p style=&quot;line-height: 100%;&quot; class=&quot;MsoNormal&quot;&gt;&lt;font&gt;+ Animal();&lt;/font&gt;&lt;/p&gt;&lt;p style=&quot;line-height: 100%;&quot; class=&quot;MsoNormal&quot;&gt;&lt;font&gt;+ virtual ~Animal();&lt;/font&gt;&lt;/p&gt;&lt;p style=&quot;line-height: 100%;&quot; class=&quot;MsoNormal&quot;&gt;&lt;font&gt;+ virtual string GetType();&lt;br&gt;&lt;/font&gt;&lt;/p&gt;&lt;p style=&quot;line-height: 100%;&quot; class=&quot;MsoNormal&quot;&gt;&lt;font&gt;+ virtual void DisplayImage();&lt;/font&gt;&lt;/p&gt;&lt;p style=&quot;line-height: 100%;&quot; class=&quot;MsoNormal&quot;&gt;&lt;font&gt;+ virtual void displayInformation();&lt;/font&gt;&lt;/p&gt;&lt;p style=&quot;line-height: 100%;&quot; class=&quot;MsoNormal&quot;&gt;&lt;font&gt;+ const char *getName() const;&lt;/font&gt;&lt;/p&gt;&lt;p style=&quot;line-height: 100%;&quot; class=&quot;MsoNormal&quot;&gt;&lt;font&gt;+ const char *getImageAnimal() const;&lt;/font&gt;&lt;/p&gt;&lt;p style=&quot;line-height: 100%;&quot; class=&quot;MsoNormal&quot;&gt;&lt;font&gt;+ const char *getOrigin() const;&lt;/font&gt;&lt;/p&gt;&lt;p style=&quot;line-height: 100%;&quot; class=&quot;MsoNormal&quot;&gt;&lt;font&gt;+ unsigned int getAverageAge() const;&lt;/font&gt;&lt;/p&gt;&lt;p style=&quot;line-height: 100%;&quot; class=&quot;MsoNormal&quot;&gt;&lt;font&gt;+ const char *getFurType() const;&lt;/font&gt;&lt;/p&gt;&lt;p style=&quot;line-height: 100%;&quot; class=&quot;MsoNormal&quot;&gt;&lt;font&gt;+ unsigned int getQuantity() const;&lt;/font&gt;&lt;/p&gt;&lt;p style=&quot;line-height: 100%;&quot; class=&quot;MsoNormal&quot;&gt;&lt;font&gt;+ unsigned int getPrice() const;&lt;/font&gt;&lt;/p&gt;&lt;p style=&quot;line-height: 100%;&quot; class=&quot;MsoNormal&quot;&gt;&lt;font&gt;+ unsigned int getSize() const;&lt;/font&gt;&lt;/p&gt;&lt;p style=&quot;line-height: 100%;&quot; class=&quot;MsoNormal&quot;&gt;&lt;font&gt;+ void setQuantity(unsigned int quantity);&lt;/font&gt;&lt;/p&gt;&lt;p style=&quot;line-height: 100%;&quot; class=&quot;MsoNormal&quot;&gt;&lt;font&gt;+ unsigned int getSellingPrice() const;&lt;/font&gt;&lt;/p&gt;&lt;p style=&quot;line-height: 100%;&quot; class=&quot;MsoNormal&quot;&gt;&lt;font&gt;+ vector&amp;lt;string&amp;gt; getAllAttributes();&lt;/font&gt;&lt;/p&gt;&lt;p style=&quot;line-height: 100%;&quot; class=&quot;MsoNormal&quot;&gt;&lt;font&gt;+ void DisplayItemFromCart();&lt;/font&gt;&lt;/p&gt;&lt;p style=&quot;line-height: 100%;&quot; class=&quot;MsoNormal&quot;&gt;&lt;font&gt;+ void DisplayImageInInfor();&lt;span style=&quot;background-color: initial;&quot;&gt;&amp;nbsp;&lt;/span&gt;&lt;/font&gt;&lt;/p&gt;" style="text;strokeColor=none;fillColor=none;align=left;verticalAlign=top;spacingLeft=4;spacingRight=4;overflow=hidden;rotatable=0;points=[[0,0.5],[1,0.5]];portConstraint=eastwest;whiteSpace=wrap;html=1;labelBackgroundColor=none;fontColor=#5AA9E6;sketch=1;curveFitting=1;jiggle=2;" parent="Q2bhWkMLcRi6aNMs0Omj-21" vertex="1">
          <mxGeometry y="260" width="277" height="540" as="geometry" />
        </mxCell>
        <mxCell id="Q2bhWkMLcRi6aNMs0Omj-26" value="Cat" style="swimlane;fontStyle=1;align=center;verticalAlign=top;childLayout=stackLayout;horizontal=1;startSize=26;horizontalStack=0;resizeParent=1;resizeParentMax=0;resizeLast=0;collapsible=1;marginBottom=0;whiteSpace=wrap;html=1;labelBackgroundColor=none;fillColor=#FFE45E;strokeColor=#FF6392;fontColor=#5AA9E6;sketch=1;curveFitting=1;jiggle=2;" parent="1" vertex="1">
          <mxGeometry x="-218" y="1170" width="260" height="818" as="geometry" />
        </mxCell>
        <mxCell id="Q2bhWkMLcRi6aNMs0Omj-27" value="&lt;p class=&quot;MsoNormal&quot;&gt;- const char *coatColor;&amp;nbsp;&amp;nbsp;&lt;/p&gt;&lt;p class=&quot;MsoNormal&quot;&gt;- const char *popularity;&amp;nbsp; &amp;nbsp;&amp;nbsp;&lt;/p&gt;&lt;p class=&quot;MsoNormal&quot;&gt;- const char *sheddingLevel;&amp;nbsp; &amp;nbsp;&amp;nbsp;&lt;/p&gt;&lt;p class=&quot;MsoNormal&quot;&gt;- const char *appearance;&lt;/p&gt;" style="text;align=left;verticalAlign=top;spacingLeft=4;spacingRight=4;overflow=hidden;rotatable=0;points=[[0,0.5],[1,0.5]];portConstraint=eastwest;whiteSpace=wrap;html=1;labelBackgroundColor=none;fontColor=#5AA9E6;sketch=1;curveFitting=1;jiggle=2;" parent="Q2bhWkMLcRi6aNMs0Omj-26" vertex="1">
          <mxGeometry y="26" width="260" height="126" as="geometry" />
        </mxCell>
        <mxCell id="Q2bhWkMLcRi6aNMs0Omj-28" value="" style="line;strokeWidth=1;fillColor=none;align=left;verticalAlign=middle;spacingTop=-1;spacingLeft=3;spacingRight=3;rotatable=0;labelPosition=right;points=[];portConstraint=eastwest;strokeColor=#FF6392;labelBackgroundColor=none;fontColor=#5AA9E6;sketch=1;curveFitting=1;jiggle=2;" parent="Q2bhWkMLcRi6aNMs0Omj-26" vertex="1">
          <mxGeometry y="152" width="260" height="8" as="geometry" />
        </mxCell>
        <mxCell id="Q2bhWkMLcRi6aNMs0Omj-29" style="edgeStyle=orthogonalEdgeStyle;rounded=0;orthogonalLoop=1;jettySize=auto;html=1;exitX=1;exitY=0.5;exitDx=0;exitDy=0;fontSize=12;startSize=8;endSize=8;curved=1;labelBackgroundColor=none;strokeColor=#FF6392;fontColor=default;sketch=1;curveFitting=1;jiggle=2;" parent="Q2bhWkMLcRi6aNMs0Omj-26" source="Q2bhWkMLcRi6aNMs0Omj-27" target="Q2bhWkMLcRi6aNMs0Omj-27" edge="1">
          <mxGeometry relative="1" as="geometry" />
        </mxCell>
        <mxCell id="Q2bhWkMLcRi6aNMs0Omj-30" value="&lt;p class=&quot;MsoNormal&quot;&gt;+Cat();&lt;/p&gt;&lt;p class=&quot;MsoNormal&quot;&gt;+ virtual ~Cat();&lt;/p&gt;&lt;p class=&quot;MsoNormal&quot;&gt;+ string GetType() const;&lt;/p&gt;&lt;p class=&quot;MsoNormal&quot;&gt;+ const char *getCoatColor() const;&lt;/p&gt;&lt;p class=&quot;MsoNormal&quot;&gt;+ const char *getPopularity() const;&lt;/p&gt;&lt;p class=&quot;MsoNormal&quot;&gt;+ const char *getSheddingLevel() const;&lt;/p&gt;&lt;p class=&quot;MsoNormal&quot;&gt;+ const char *getAppearance() const;&lt;/p&gt;&lt;p class=&quot;MsoNormal&quot;&gt;+ vector&amp;lt;char*&amp;gt; getAttributes();&lt;/p&gt;&lt;p class=&quot;MsoNormal&quot;&gt;+ vector&amp;lt;string&amp;gt; getAllAttributes();&lt;/p&gt;&lt;p class=&quot;MsoNormal&quot;&gt;+ static void initializeCatList();&lt;/p&gt;&lt;p class=&quot;MsoNormal&quot;&gt;+ void DisplayImage();&lt;/p&gt;&lt;p class=&quot;MsoNormal&quot;&gt;&lt;span style=&quot;background-color: initial;&quot;&gt;+ void displayInformation();&lt;/span&gt;&lt;/p&gt;" style="text;strokeColor=none;fillColor=none;align=left;verticalAlign=top;spacingLeft=4;spacingRight=4;overflow=hidden;rotatable=0;points=[[0,0.5],[1,0.5]];portConstraint=eastwest;whiteSpace=wrap;html=1;labelBackgroundColor=none;fontColor=#5AA9E6;sketch=1;curveFitting=1;jiggle=2;" parent="Q2bhWkMLcRi6aNMs0Omj-26" vertex="1">
          <mxGeometry y="160" width="260" height="329" as="geometry" />
        </mxCell>
        <mxCell id="auY5hM0ON-7llxalfGHz-51" value="&lt;p class=&quot;MsoNormal&quot;&gt;+Cat();&lt;/p&gt;&lt;p class=&quot;MsoNormal&quot;&gt;+ virtual ~Cat();&lt;/p&gt;&lt;p class=&quot;MsoNormal&quot;&gt;+ string GetType() const;&lt;/p&gt;&lt;p class=&quot;MsoNormal&quot;&gt;+ const char *getCoatColor() const;&lt;/p&gt;&lt;p class=&quot;MsoNormal&quot;&gt;+ const char *getPopularity() const;&lt;/p&gt;&lt;p class=&quot;MsoNormal&quot;&gt;+ const char *getSheddingLevel() const;&lt;/p&gt;&lt;p class=&quot;MsoNormal&quot;&gt;+ const char *getAppearance() const;&lt;/p&gt;&lt;p class=&quot;MsoNormal&quot;&gt;+ vector&amp;lt;char*&amp;gt; getAttributes();&lt;/p&gt;&lt;p class=&quot;MsoNormal&quot;&gt;+ vector&amp;lt;string&amp;gt; getAllAttributes();&lt;/p&gt;&lt;p class=&quot;MsoNormal&quot;&gt;+ static void initializeCatList();&lt;/p&gt;&lt;p class=&quot;MsoNormal&quot;&gt;+ void DisplayImage();&lt;/p&gt;&lt;p class=&quot;MsoNormal&quot;&gt;&lt;span style=&quot;background-color: initial;&quot;&gt;+ void displayInformation();&lt;/span&gt;&lt;/p&gt;" style="text;strokeColor=none;fillColor=none;align=left;verticalAlign=top;spacingLeft=4;spacingRight=4;overflow=hidden;rotatable=0;points=[[0,0.5],[1,0.5]];portConstraint=eastwest;whiteSpace=wrap;html=1;labelBackgroundColor=none;fontColor=#5AA9E6;sketch=1;curveFitting=1;jiggle=2;" vertex="1" parent="Q2bhWkMLcRi6aNMs0Omj-26">
          <mxGeometry y="489" width="260" height="329" as="geometry" />
        </mxCell>
        <mxCell id="Q2bhWkMLcRi6aNMs0Omj-31" value="Customer" style="swimlane;fontStyle=1;align=center;verticalAlign=top;childLayout=stackLayout;horizontal=1;startSize=26;horizontalStack=0;resizeParent=1;resizeParentMax=0;resizeLast=0;collapsible=1;marginBottom=0;whiteSpace=wrap;html=1;labelBackgroundColor=none;fillColor=#FFE45E;strokeColor=#FF6392;fontColor=#5AA9E6;sketch=1;curveFitting=1;jiggle=2;" parent="1" vertex="1">
          <mxGeometry x="372" y="1415" width="260" height="566" as="geometry" />
        </mxCell>
        <mxCell id="Q2bhWkMLcRi6aNMs0Omj-32" value="&lt;p class=&quot;MsoNormal&quot;&gt;- unsigned int id;&lt;/p&gt;&lt;p class=&quot;MsoNormal&quot;&gt;- string name;&lt;/p&gt;&lt;p class=&quot;MsoNormal&quot;&gt;- string phoneNumber;&lt;/p&gt;&lt;p class=&quot;MsoNormal&quot;&gt;- string address;&lt;/p&gt;&lt;p class=&quot;MsoNormal&quot;&gt;- unsigned int purchaseQuantity;&lt;/p&gt;" style="text;align=left;verticalAlign=top;spacingLeft=4;spacingRight=4;overflow=hidden;rotatable=0;points=[[0,0.5],[1,0.5]];portConstraint=eastwest;whiteSpace=wrap;html=1;labelBackgroundColor=none;fontColor=#5AA9E6;sketch=1;curveFitting=1;jiggle=2;" parent="Q2bhWkMLcRi6aNMs0Omj-31" vertex="1">
          <mxGeometry y="26" width="260" height="150" as="geometry" />
        </mxCell>
        <mxCell id="Q2bhWkMLcRi6aNMs0Omj-33" value="" style="line;strokeWidth=1;fillColor=none;align=left;verticalAlign=middle;spacingTop=-1;spacingLeft=3;spacingRight=3;rotatable=0;labelPosition=right;points=[];portConstraint=eastwest;strokeColor=#FF6392;labelBackgroundColor=none;fontColor=#5AA9E6;sketch=1;curveFitting=1;jiggle=2;" parent="Q2bhWkMLcRi6aNMs0Omj-31" vertex="1">
          <mxGeometry y="176" width="260" height="8" as="geometry" />
        </mxCell>
        <mxCell id="Q2bhWkMLcRi6aNMs0Omj-34" style="edgeStyle=orthogonalEdgeStyle;rounded=0;orthogonalLoop=1;jettySize=auto;html=1;exitX=1;exitY=0.5;exitDx=0;exitDy=0;fontSize=12;startSize=8;endSize=8;curved=1;labelBackgroundColor=none;strokeColor=#FF6392;fontColor=default;sketch=1;curveFitting=1;jiggle=2;" parent="Q2bhWkMLcRi6aNMs0Omj-31" source="Q2bhWkMLcRi6aNMs0Omj-32" target="Q2bhWkMLcRi6aNMs0Omj-32" edge="1">
          <mxGeometry relative="1" as="geometry" />
        </mxCell>
        <mxCell id="Q2bhWkMLcRi6aNMs0Omj-35" value="&lt;p class=&quot;MsoNormal&quot;&gt;+ Customer();&lt;/p&gt;&lt;p class=&quot;MsoNormal&quot;&gt;+ static void initializeNextIdFromFile();&lt;/p&gt;&lt;p class=&quot;MsoNormal&quot;&gt;+ unsigned int getId();&lt;/p&gt;&lt;p class=&quot;MsoNormal&quot;&gt;+ string getName();&lt;/p&gt;&lt;p class=&quot;MsoNormal&quot;&gt;+ string getPhoneNumber();&lt;/p&gt;&lt;p class=&quot;MsoNormal&quot;&gt;+ string getAddress();&lt;/p&gt;&lt;p class=&quot;MsoNormal&quot;&gt;+ unsigned int getPurchaseQuantity();&lt;/p&gt;&lt;p class=&quot;MsoNormal&quot;&gt;+ void setPurchaseQuantity();&lt;/p&gt;&lt;p class=&quot;MsoNormal&quot;&gt;+ bool checkCustomer();&lt;/p&gt;&lt;p class=&quot;MsoNormal&quot;&gt;+ void updateName();&lt;/p&gt;&lt;p class=&quot;MsoNormal&quot;&gt;+ void updateAddress();&lt;/p&gt;&lt;p class=&quot;MsoNormal&quot;&gt;+ void updateInformation();&lt;/p&gt;&lt;p class=&quot;MsoNormal&quot;&gt;+ void displayCustomer();&lt;/p&gt;&lt;p class=&quot;MsoNormal&quot;&gt;6 static void displayCustomers();&lt;/p&gt;" style="text;strokeColor=none;fillColor=none;align=left;verticalAlign=top;spacingLeft=4;spacingRight=4;overflow=hidden;rotatable=0;points=[[0,0.5],[1,0.5]];portConstraint=eastwest;whiteSpace=wrap;html=1;labelBackgroundColor=none;fontColor=#5AA9E6;sketch=1;curveFitting=1;jiggle=2;" parent="Q2bhWkMLcRi6aNMs0Omj-31" vertex="1">
          <mxGeometry y="184" width="260" height="382" as="geometry" />
        </mxCell>
        <mxCell id="Q2bhWkMLcRi6aNMs0Omj-41" value="Order" style="swimlane;fontStyle=1;align=center;verticalAlign=top;childLayout=stackLayout;horizontal=1;startSize=26;horizontalStack=0;resizeParent=1;resizeParentMax=0;resizeLast=0;collapsible=1;marginBottom=0;whiteSpace=wrap;html=1;labelBackgroundColor=none;fillColor=#FFE45E;strokeColor=#FF6392;fontColor=#5AA9E6;sketch=1;curveFitting=1;jiggle=2;" parent="1" vertex="1">
          <mxGeometry x="964" y="1418" width="260" height="587" as="geometry" />
        </mxCell>
        <mxCell id="Q2bhWkMLcRi6aNMs0Omj-42" value="&lt;p class=&quot;MsoNormal&quot;&gt;- unsigned int order_id;&lt;/p&gt;&lt;p class=&quot;MsoNormal&quot;&gt;-&amp;nbsp; unsigned int customer_id;&lt;/p&gt;&lt;p class=&quot;MsoNormal&quot;&gt;-&amp;nbsp; unsigned int totalAmount;&lt;/p&gt;&lt;p class=&quot;MsoNormal&quot;&gt;-&amp;nbsp; string day;&lt;/p&gt;&lt;p class=&quot;MsoNormal&quot;&gt;-&amp;nbsp; string month;&lt;/p&gt;&lt;p class=&quot;MsoNormal&quot;&gt;-&amp;nbsp; string year;&lt;/p&gt;&lt;p class=&quot;MsoNormal&quot;&gt;- vector&amp;lt;Item&amp;gt; Items;&amp;nbsp;&lt;/p&gt;" style="text;align=left;verticalAlign=top;spacingLeft=4;spacingRight=4;overflow=hidden;rotatable=0;points=[[0,0.5],[1,0.5]];portConstraint=eastwest;whiteSpace=wrap;html=1;labelBackgroundColor=none;fontColor=#5AA9E6;sketch=1;curveFitting=1;jiggle=2;" parent="Q2bhWkMLcRi6aNMs0Omj-41" vertex="1">
          <mxGeometry y="26" width="260" height="196" as="geometry" />
        </mxCell>
        <mxCell id="Q2bhWkMLcRi6aNMs0Omj-43" value="" style="line;strokeWidth=1;fillColor=none;align=left;verticalAlign=middle;spacingTop=-1;spacingLeft=3;spacingRight=3;rotatable=0;labelPosition=right;points=[];portConstraint=eastwest;strokeColor=#FF6392;labelBackgroundColor=none;fontColor=#5AA9E6;sketch=1;curveFitting=1;jiggle=2;" parent="Q2bhWkMLcRi6aNMs0Omj-41" vertex="1">
          <mxGeometry y="222" width="260" height="8" as="geometry" />
        </mxCell>
        <mxCell id="Q2bhWkMLcRi6aNMs0Omj-44" style="edgeStyle=orthogonalEdgeStyle;rounded=0;orthogonalLoop=1;jettySize=auto;html=1;exitX=1;exitY=0.5;exitDx=0;exitDy=0;fontSize=12;startSize=8;endSize=8;curved=1;labelBackgroundColor=none;strokeColor=#FF6392;fontColor=default;sketch=1;curveFitting=1;jiggle=2;" parent="Q2bhWkMLcRi6aNMs0Omj-41" source="Q2bhWkMLcRi6aNMs0Omj-42" target="Q2bhWkMLcRi6aNMs0Omj-42" edge="1">
          <mxGeometry relative="1" as="geometry" />
        </mxCell>
        <mxCell id="Q2bhWkMLcRi6aNMs0Omj-45" value="&lt;p class=&quot;MsoNormal&quot;&gt;+ Order();&lt;/p&gt;&lt;p class=&quot;MsoNormal&quot;&gt;+ long long calculateTotalAmount();&lt;/p&gt;&lt;p class=&quot;MsoNormal&quot;&gt;+ unsigned int getOrderId();&lt;/p&gt;&lt;p class=&quot;MsoNormal&quot;&gt;+ unsigned int getCustomerId();&lt;/p&gt;&lt;p class=&quot;MsoNormal&quot;&gt;+ vector&amp;lt;Item&amp;gt; getItems();&lt;/p&gt;&lt;p class=&quot;MsoNormal&quot;&gt;+ string getOrderDetails();&lt;/p&gt;&lt;p class=&quot;MsoNormal&quot;&gt;+ string getOrderDay();&lt;/p&gt;&lt;p class=&quot;MsoNormal&quot;&gt;+ string getOrderMonth();&lt;/p&gt;&lt;p class=&quot;MsoNormal&quot;&gt;+ string getOrderYear();&lt;/p&gt;&lt;p class=&quot;MsoNormal&quot;&gt;+ void generalInvoice();&lt;/p&gt;&lt;p class=&quot;MsoNormal&quot;&gt;+ static void initializeOrderIdFromFile();&lt;/p&gt;&lt;p class=&quot;MsoNormal&quot;&gt;+ void saveToFileOrder();&lt;/p&gt;&lt;p class=&quot;MsoNormal&quot;&gt;+ void saveToFileSales();&lt;/p&gt;" style="text;strokeColor=none;fillColor=none;align=left;verticalAlign=top;spacingLeft=4;spacingRight=4;overflow=hidden;rotatable=0;points=[[0,0.5],[1,0.5]];portConstraint=eastwest;whiteSpace=wrap;html=1;labelBackgroundColor=none;fontColor=#5AA9E6;sketch=1;curveFitting=1;jiggle=2;" parent="Q2bhWkMLcRi6aNMs0Omj-41" vertex="1">
          <mxGeometry y="230" width="260" height="357" as="geometry" />
        </mxCell>
        <mxCell id="Q2bhWkMLcRi6aNMs0Omj-46" value="Statistical" style="swimlane;fontStyle=1;align=center;verticalAlign=top;childLayout=stackLayout;horizontal=1;startSize=26;horizontalStack=0;resizeParent=1;resizeParentMax=0;resizeLast=0;collapsible=1;marginBottom=0;whiteSpace=wrap;html=1;labelBackgroundColor=none;fillColor=#FFE45E;strokeColor=#FF6392;fontColor=#5AA9E6;sketch=1;curveFitting=1;jiggle=2;" parent="1" vertex="1">
          <mxGeometry x="1545" y="1143" width="260" height="98" as="geometry" />
        </mxCell>
        <mxCell id="Q2bhWkMLcRi6aNMs0Omj-47" value="&lt;p class=&quot;MsoNormal&quot;&gt;+ static void pieChart();&lt;/p&gt;&lt;p class=&quot;MsoNormal&quot;&gt;+ static void barChart();&lt;/p&gt;" style="text;align=left;verticalAlign=top;spacingLeft=4;spacingRight=4;overflow=hidden;rotatable=0;points=[[0,0.5],[1,0.5]];portConstraint=eastwest;whiteSpace=wrap;html=1;labelBackgroundColor=none;fontColor=#5AA9E6;sketch=1;curveFitting=1;jiggle=2;" parent="Q2bhWkMLcRi6aNMs0Omj-46" vertex="1">
          <mxGeometry y="26" width="260" height="64" as="geometry" />
        </mxCell>
        <mxCell id="Q2bhWkMLcRi6aNMs0Omj-48" value="" style="line;strokeWidth=1;fillColor=none;align=left;verticalAlign=middle;spacingTop=-1;spacingLeft=3;spacingRight=3;rotatable=0;labelPosition=right;points=[];portConstraint=eastwest;strokeColor=#FF6392;labelBackgroundColor=none;fontColor=#5AA9E6;sketch=1;curveFitting=1;jiggle=2;" parent="Q2bhWkMLcRi6aNMs0Omj-46" vertex="1">
          <mxGeometry y="90" width="260" height="8" as="geometry" />
        </mxCell>
        <mxCell id="Q2bhWkMLcRi6aNMs0Omj-49" style="edgeStyle=orthogonalEdgeStyle;rounded=0;orthogonalLoop=1;jettySize=auto;html=1;exitX=1;exitY=0.5;exitDx=0;exitDy=0;fontSize=12;startSize=8;endSize=8;curved=1;labelBackgroundColor=none;strokeColor=#FF6392;fontColor=default;sketch=1;curveFitting=1;jiggle=2;" parent="Q2bhWkMLcRi6aNMs0Omj-46" source="Q2bhWkMLcRi6aNMs0Omj-47" target="Q2bhWkMLcRi6aNMs0Omj-47" edge="1">
          <mxGeometry relative="1" as="geometry" />
        </mxCell>
        <mxCell id="auY5hM0ON-7llxalfGHz-22" value="Node" style="swimlane;fontStyle=1;align=center;verticalAlign=top;childLayout=stackLayout;horizontal=1;startSize=26;horizontalStack=0;resizeParent=1;resizeParentMax=0;resizeLast=0;collapsible=1;marginBottom=0;whiteSpace=wrap;html=1;labelBackgroundColor=none;fillColor=#FFE45E;strokeColor=#FF6392;fontColor=#5AA9E6;sketch=1;curveFitting=1;jiggle=2;" vertex="1" parent="1">
          <mxGeometry x="1874" y="434" width="260" height="192" as="geometry" />
        </mxCell>
        <mxCell id="auY5hM0ON-7llxalfGHz-23" value="&lt;p class=&quot;MsoNormal&quot;&gt;- T data;&lt;/p&gt;&lt;p class=&quot;MsoNormal&quot;&gt;- Node&amp;lt;T&amp;gt;* next;&lt;/p&gt;" style="text;align=left;verticalAlign=top;spacingLeft=4;spacingRight=4;overflow=hidden;rotatable=0;points=[[0,0.5],[1,0.5]];portConstraint=eastwest;whiteSpace=wrap;html=1;labelBackgroundColor=none;fontColor=#5AA9E6;sketch=1;curveFitting=1;jiggle=2;" vertex="1" parent="auY5hM0ON-7llxalfGHz-22">
          <mxGeometry y="26" width="260" height="69" as="geometry" />
        </mxCell>
        <mxCell id="auY5hM0ON-7llxalfGHz-24" value="" style="line;strokeWidth=1;fillColor=none;align=left;verticalAlign=middle;spacingTop=-1;spacingLeft=3;spacingRight=3;rotatable=0;labelPosition=right;points=[];portConstraint=eastwest;strokeColor=#FF6392;labelBackgroundColor=none;fontColor=#5AA9E6;sketch=1;curveFitting=1;jiggle=2;" vertex="1" parent="auY5hM0ON-7llxalfGHz-22">
          <mxGeometry y="95" width="260" height="8" as="geometry" />
        </mxCell>
        <mxCell id="auY5hM0ON-7llxalfGHz-25" style="edgeStyle=orthogonalEdgeStyle;rounded=0;orthogonalLoop=1;jettySize=auto;html=1;exitX=1;exitY=0.5;exitDx=0;exitDy=0;fontSize=12;startSize=8;endSize=8;curved=1;labelBackgroundColor=none;strokeColor=#FF6392;fontColor=default;sketch=1;curveFitting=1;jiggle=2;" edge="1" parent="auY5hM0ON-7llxalfGHz-22" source="auY5hM0ON-7llxalfGHz-23" target="auY5hM0ON-7llxalfGHz-23">
          <mxGeometry relative="1" as="geometry" />
        </mxCell>
        <mxCell id="auY5hM0ON-7llxalfGHz-26" value="&lt;p class=&quot;MsoNormal&quot;&gt;+ Node();&lt;/p&gt;&lt;p class=&quot;MsoNormal&quot;&gt;+ Node&amp;lt;T&amp;gt;* getNext();&lt;/p&gt;&lt;p class=&quot;MsoNormal&quot;&gt;+ T&amp;amp; getData();&lt;/p&gt;" style="text;strokeColor=none;fillColor=none;align=left;verticalAlign=top;spacingLeft=4;spacingRight=4;overflow=hidden;rotatable=0;points=[[0,0.5],[1,0.5]];portConstraint=eastwest;whiteSpace=wrap;html=1;labelBackgroundColor=none;fontColor=#5AA9E6;sketch=1;curveFitting=1;jiggle=2;" vertex="1" parent="auY5hM0ON-7llxalfGHz-22">
          <mxGeometry y="103" width="260" height="89" as="geometry" />
        </mxCell>
        <mxCell id="auY5hM0ON-7llxalfGHz-32" value="Item" style="swimlane;fontStyle=1;align=center;verticalAlign=top;childLayout=stackLayout;horizontal=1;startSize=26;horizontalStack=0;resizeParent=1;resizeParentMax=0;resizeLast=0;collapsible=1;marginBottom=0;whiteSpace=wrap;html=1;labelBackgroundColor=none;fillColor=#FFE45E;strokeColor=#FF6392;fontColor=#5AA9E6;sketch=1;curveFitting=1;jiggle=2;" vertex="1" parent="1">
          <mxGeometry x="1249" y="1655" width="260" height="256" as="geometry" />
        </mxCell>
        <mxCell id="auY5hM0ON-7llxalfGHz-33" value="&lt;p class=&quot;MsoNormal&quot;&gt;string name;&lt;/p&gt;&lt;p class=&quot;MsoNormal&quot;&gt;unsigned int quantity;&lt;/p&gt;&lt;p class=&quot;MsoNormal&quot;&gt;unsigned int price;&lt;/p&gt;" style="text;align=left;verticalAlign=top;spacingLeft=4;spacingRight=4;overflow=hidden;rotatable=0;points=[[0,0.5],[1,0.5]];portConstraint=eastwest;whiteSpace=wrap;html=1;labelBackgroundColor=none;fontColor=#5AA9E6;sketch=1;curveFitting=1;jiggle=2;" vertex="1" parent="auY5hM0ON-7llxalfGHz-32">
          <mxGeometry y="26" width="260" height="96" as="geometry" />
        </mxCell>
        <mxCell id="auY5hM0ON-7llxalfGHz-34" value="" style="line;strokeWidth=1;fillColor=none;align=left;verticalAlign=middle;spacingTop=-1;spacingLeft=3;spacingRight=3;rotatable=0;labelPosition=right;points=[];portConstraint=eastwest;strokeColor=#FF6392;labelBackgroundColor=none;fontColor=#5AA9E6;sketch=1;curveFitting=1;jiggle=2;" vertex="1" parent="auY5hM0ON-7llxalfGHz-32">
          <mxGeometry y="122" width="260" height="8" as="geometry" />
        </mxCell>
        <mxCell id="auY5hM0ON-7llxalfGHz-35" style="edgeStyle=orthogonalEdgeStyle;rounded=0;orthogonalLoop=1;jettySize=auto;html=1;exitX=1;exitY=0.5;exitDx=0;exitDy=0;fontSize=12;startSize=8;endSize=8;curved=1;labelBackgroundColor=none;strokeColor=#FF6392;fontColor=default;sketch=1;curveFitting=1;jiggle=2;" edge="1" parent="auY5hM0ON-7llxalfGHz-32" source="auY5hM0ON-7llxalfGHz-33" target="auY5hM0ON-7llxalfGHz-33">
          <mxGeometry relative="1" as="geometry" />
        </mxCell>
        <mxCell id="auY5hM0ON-7llxalfGHz-109" value="&lt;p class=&quot;MsoNormal&quot;&gt;+ Item();&lt;/p&gt;&lt;p class=&quot;MsoNormal&quot;&gt;+ long long getTotalPrice();&lt;/p&gt;&lt;p class=&quot;MsoNormal&quot;&gt;+ string getName();&lt;/p&gt;&lt;p class=&quot;MsoNormal&quot;&gt;+ unsigned int getQuantity();&lt;/p&gt;" style="text;align=left;verticalAlign=top;spacingLeft=4;spacingRight=4;overflow=hidden;rotatable=0;points=[[0,0.5],[1,0.5]];portConstraint=eastwest;whiteSpace=wrap;html=1;labelBackgroundColor=none;fontColor=#5AA9E6;sketch=1;curveFitting=1;jiggle=2;" vertex="1" parent="auY5hM0ON-7llxalfGHz-32">
          <mxGeometry y="130" width="260" height="126" as="geometry" />
        </mxCell>
        <mxCell id="auY5hM0ON-7llxalfGHz-41" value="Bar" style="swimlane;fontStyle=1;align=center;verticalAlign=top;childLayout=stackLayout;horizontal=1;startSize=26;horizontalStack=0;resizeParent=1;resizeParentMax=0;resizeLast=0;collapsible=1;marginBottom=0;whiteSpace=wrap;html=1;labelBackgroundColor=none;fillColor=#FFE45E;strokeColor=#FF6392;fontColor=#5AA9E6;sketch=1;curveFitting=1;jiggle=2;" vertex="1" parent="1">
          <mxGeometry x="1534" y="1410" width="260" height="510" as="geometry" />
        </mxCell>
        <mxCell id="auY5hM0ON-7llxalfGHz-42" value="&lt;p class=&quot;MsoNormal&quot;&gt;- int month;&lt;/p&gt;&lt;p class=&quot;MsoNormal&quot;&gt;- int price;&lt;/p&gt;&lt;p class=&quot;MsoNormal&quot;&gt;- int quantity;&lt;/p&gt;&lt;p class=&quot;MsoNormal&quot;&gt;- string name;&lt;/p&gt;" style="text;align=left;verticalAlign=top;spacingLeft=4;spacingRight=4;overflow=hidden;rotatable=0;points=[[0,0.5],[1,0.5]];portConstraint=eastwest;whiteSpace=wrap;html=1;labelBackgroundColor=none;fontColor=#5AA9E6;sketch=1;curveFitting=1;jiggle=2;" vertex="1" parent="auY5hM0ON-7llxalfGHz-41">
          <mxGeometry y="26" width="260" height="119" as="geometry" />
        </mxCell>
        <mxCell id="auY5hM0ON-7llxalfGHz-43" value="" style="line;strokeWidth=1;fillColor=none;align=left;verticalAlign=middle;spacingTop=-1;spacingLeft=3;spacingRight=3;rotatable=0;labelPosition=right;points=[];portConstraint=eastwest;strokeColor=#FF6392;labelBackgroundColor=none;fontColor=#5AA9E6;sketch=1;curveFitting=1;jiggle=2;" vertex="1" parent="auY5hM0ON-7llxalfGHz-41">
          <mxGeometry y="145" width="260" height="8" as="geometry" />
        </mxCell>
        <mxCell id="auY5hM0ON-7llxalfGHz-44" style="edgeStyle=orthogonalEdgeStyle;rounded=0;orthogonalLoop=1;jettySize=auto;html=1;exitX=1;exitY=0.5;exitDx=0;exitDy=0;fontSize=12;startSize=8;endSize=8;curved=1;labelBackgroundColor=none;strokeColor=#FF6392;fontColor=default;sketch=1;curveFitting=1;jiggle=2;" edge="1" parent="auY5hM0ON-7llxalfGHz-41" source="auY5hM0ON-7llxalfGHz-42" target="auY5hM0ON-7llxalfGHz-42">
          <mxGeometry relative="1" as="geometry" />
        </mxCell>
        <mxCell id="auY5hM0ON-7llxalfGHz-45" value="&lt;p class=&quot;MsoNormal&quot;&gt;+ Bar();&lt;/p&gt;&lt;p class=&quot;MsoNormal&quot;&gt;+ int getMonth() const;&lt;/p&gt;&lt;p class=&quot;MsoNormal&quot;&gt;+ int getPrice() const;&lt;/p&gt;&lt;p class=&quot;MsoNormal&quot;&gt;+ int getQuantity() const;&lt;/p&gt;&lt;p class=&quot;MsoNormal&quot;&gt;+ string getName() const;&lt;/p&gt;&lt;p class=&quot;MsoNormal&quot;&gt;+ void setMonth(int month);&lt;/p&gt;&lt;p class=&quot;MsoNormal&quot;&gt;+ void setPrice(int price);&lt;/p&gt;&lt;p class=&quot;MsoNormal&quot;&gt;+ void setQuantity(int quantity);&lt;/p&gt;&lt;p class=&quot;MsoNormal&quot;&gt;+ void setName(string name);&lt;/p&gt;&lt;p class=&quot;MsoNormal&quot;&gt;+ static void insertionSort();&lt;/p&gt;&lt;p class=&quot;MsoNormal&quot;&gt;+ static Color GetUniqueColor();&lt;/p&gt;&lt;p class=&quot;MsoNormal&quot;&gt;+ static void mergeSmallBars();&lt;/p&gt;&lt;p class=&quot;MsoNormal&quot;&gt;+ static vector&amp;lt;string&amp;gt;WrapText();&lt;/p&gt;" style="text;strokeColor=none;fillColor=none;align=left;verticalAlign=top;spacingLeft=4;spacingRight=4;overflow=hidden;rotatable=0;points=[[0,0.5],[1,0.5]];portConstraint=eastwest;whiteSpace=wrap;html=1;labelBackgroundColor=none;fontColor=#5AA9E6;sketch=1;curveFitting=1;jiggle=2;" vertex="1" parent="auY5hM0ON-7llxalfGHz-41">
          <mxGeometry y="153" width="260" height="357" as="geometry" />
        </mxCell>
        <mxCell id="auY5hM0ON-7llxalfGHz-54" style="edgeStyle=elbowEdgeStyle;rounded=0;orthogonalLoop=1;jettySize=auto;html=1;entryX=0.995;entryY=0.259;entryDx=0;entryDy=0;entryPerimeter=0;fontSize=12;startSize=8;endSize=8;sketch=1;curveFitting=1;jiggle=2;labelBackgroundColor=none;strokeColor=#FF6392;fontColor=default;" edge="1" parent="1" source="Q2bhWkMLcRi6aNMs0Omj-16" target="Q2bhWkMLcRi6aNMs0Omj-22">
          <mxGeometry relative="1" as="geometry" />
        </mxCell>
        <mxCell id="auY5hM0ON-7llxalfGHz-61" style="edgeStyle=elbowEdgeStyle;rounded=0;orthogonalLoop=1;jettySize=auto;html=1;fontSize=12;startSize=8;endSize=8;entryX=0.995;entryY=0.639;entryDx=0;entryDy=0;entryPerimeter=0;sketch=1;curveFitting=1;jiggle=2;labelBackgroundColor=none;strokeColor=#FF6392;fontColor=default;" edge="1" parent="1" source="Q2bhWkMLcRi6aNMs0Omj-27" target="Q2bhWkMLcRi6aNMs0Omj-22">
          <mxGeometry relative="1" as="geometry">
            <mxPoint x="374" y="611" as="targetPoint" />
          </mxGeometry>
        </mxCell>
        <mxCell id="auY5hM0ON-7llxalfGHz-63" style="rounded=0;orthogonalLoop=1;jettySize=auto;html=1;entryX=1.001;entryY=0.368;entryDx=0;entryDy=0;entryPerimeter=0;fontSize=12;startSize=8;endSize=8;sketch=1;curveFitting=1;jiggle=2;labelBackgroundColor=none;strokeColor=#FF6392;fontColor=default;" edge="1" parent="1" source="auY5hM0ON-7llxalfGHz-23" target="Q2bhWkMLcRi6aNMs0Omj-2">
          <mxGeometry relative="1" as="geometry" />
        </mxCell>
        <mxCell id="auY5hM0ON-7llxalfGHz-64" style="edgeStyle=elbowEdgeStyle;rounded=0;orthogonalLoop=1;jettySize=auto;html=1;fontSize=12;startSize=8;endSize=8;entryX=0;entryY=0.5;entryDx=0;entryDy=0;sketch=1;curveFitting=1;jiggle=2;labelBackgroundColor=none;strokeColor=#FF6392;fontColor=default;" edge="1" parent="1" source="auY5hM0ON-7llxalfGHz-42" target="Q2bhWkMLcRi6aNMs0Omj-47">
          <mxGeometry relative="1" as="geometry">
            <mxPoint x="2044" y="1266" as="targetPoint" />
          </mxGeometry>
        </mxCell>
        <mxCell id="auY5hM0ON-7llxalfGHz-67" style="edgeStyle=elbowEdgeStyle;rounded=0;orthogonalLoop=1;jettySize=auto;html=1;entryX=1;entryY=0.18;entryDx=0;entryDy=0;entryPerimeter=0;fontSize=12;startSize=8;endSize=8;sketch=1;curveFitting=1;jiggle=2;labelBackgroundColor=none;strokeColor=#FF6392;fontColor=default;" edge="1" parent="1" source="auY5hM0ON-7llxalfGHz-32" target="Q2bhWkMLcRi6aNMs0Omj-42">
          <mxGeometry relative="1" as="geometry" />
        </mxCell>
        <mxCell id="auY5hM0ON-7llxalfGHz-68" value="Screen" style="swimlane;fontStyle=1;align=center;verticalAlign=top;childLayout=stackLayout;horizontal=1;startSize=26;horizontalStack=0;resizeParent=1;resizeParentMax=0;resizeLast=0;collapsible=1;marginBottom=0;whiteSpace=wrap;html=1;labelBackgroundColor=none;fillColor=#FFE45E;strokeColor=#FF6392;fontColor=#5AA9E6;sketch=1;curveFitting=1;jiggle=2;" vertex="1" parent="1">
          <mxGeometry x="357" y="404" width="265" height="672" as="geometry" />
        </mxCell>
        <mxCell id="auY5hM0ON-7llxalfGHz-69" value="&lt;p class=&quot;MsoNormal&quot;&gt;- const int widthWindow;&lt;/p&gt;&lt;p class=&quot;MsoNormal&quot;&gt;- const int heightWindow;&lt;br&gt;&lt;/p&gt;&lt;p class=&quot;MsoNormal&quot;&gt;- Texture textureMenu;&lt;/p&gt;&lt;p class=&quot;MsoNormal&quot;&gt;+ Screens beforeScreen = HOME;&lt;/p&gt;&lt;p class=&quot;MsoNormal&quot;&gt;+ Screens currentScreen = HOME;&lt;/p&gt;" style="text;align=left;verticalAlign=top;spacingLeft=4;spacingRight=4;overflow=hidden;rotatable=0;points=[[0,0.5],[1,0.5]];portConstraint=eastwest;whiteSpace=wrap;html=1;labelBackgroundColor=none;fontColor=#5AA9E6;sketch=1;curveFitting=1;jiggle=2;" vertex="1" parent="auY5hM0ON-7llxalfGHz-68">
          <mxGeometry y="26" width="265" height="149" as="geometry" />
        </mxCell>
        <mxCell id="auY5hM0ON-7llxalfGHz-70" value="" style="line;strokeWidth=1;fillColor=none;align=left;verticalAlign=middle;spacingTop=-1;spacingLeft=3;spacingRight=3;rotatable=0;labelPosition=right;points=[];portConstraint=eastwest;strokeColor=#FF6392;labelBackgroundColor=none;fontColor=#5AA9E6;sketch=1;curveFitting=1;jiggle=2;" vertex="1" parent="auY5hM0ON-7llxalfGHz-68">
          <mxGeometry y="175" width="265" height="8" as="geometry" />
        </mxCell>
        <mxCell id="auY5hM0ON-7llxalfGHz-71" value="&lt;p class=&quot;MsoNormal&quot;&gt;- void backButton();&lt;/p&gt;&lt;p class=&quot;MsoNormal&quot;&gt;- void nextButton();&lt;/p&gt;&lt;p class=&quot;MsoNormal&quot;&gt;- void previousButton();&lt;/p&gt;&lt;p class=&quot;MsoNormal&quot;&gt;- void DrawInputBox();&lt;/p&gt;&lt;p class=&quot;MsoNormal&quot;&gt;- Image loadImageCart();&lt;/p&gt;&lt;p class=&quot;MsoNormal&quot;&gt;+ Screen();&lt;/p&gt;&lt;p class=&quot;MsoNormal&quot;&gt;&amp;nbsp;+ ~Screen();&lt;/p&gt;&lt;p class=&quot;MsoNormal&quot;&gt;+ void backGround();&lt;/p&gt;&lt;p class=&quot;MsoNormal&quot;&gt;+ void DrawHome();&lt;/p&gt;&lt;p class=&quot;MsoNormal&quot;&gt;+ void navigationMenu();&lt;/p&gt;&lt;p class=&quot;MsoNormal&quot;&gt;+ void HeadingAnimal();&lt;br&gt;&lt;/p&gt;&lt;p class=&quot;MsoNormal&quot;&gt;+ void getNode();&lt;/p&gt;&lt;p class=&quot;MsoNormal&quot;&gt;+ void deleteNode();&lt;/p&gt;&lt;p class=&quot;MsoNormal&quot;&gt;+ void Heading();&lt;/p&gt;&lt;p class=&quot;MsoNormal&quot;&gt;+ bool ShowPopup();&lt;/p&gt;&lt;p class=&quot;MsoNormal&quot;&gt;+ bool inputInforNewItem();&lt;/p&gt;&lt;p class=&quot;MsoNormal&quot;&gt;+ void displayHistory();&lt;/p&gt;&lt;p class=&quot;MsoNormal&quot;&gt;+ void displayIntro();&lt;/p&gt;" style="text;strokeColor=none;fillColor=none;align=left;verticalAlign=top;spacingLeft=4;spacingRight=4;overflow=hidden;rotatable=0;points=[[0,0.5],[1,0.5]];portConstraint=eastwest;whiteSpace=wrap;html=1;labelBackgroundColor=none;fontColor=#5AA9E6;sketch=1;curveFitting=1;jiggle=2;" vertex="1" parent="auY5hM0ON-7llxalfGHz-68">
          <mxGeometry y="183" width="265" height="489" as="geometry" />
        </mxCell>
        <mxCell id="auY5hM0ON-7llxalfGHz-72" style="edgeStyle=orthogonalEdgeStyle;rounded=0;orthogonalLoop=1;jettySize=auto;html=1;exitX=1;exitY=0.5;exitDx=0;exitDy=0;fontSize=12;startSize=8;endSize=8;curved=1;labelBackgroundColor=none;strokeColor=#FF6392;fontColor=default;sketch=1;curveFitting=1;jiggle=2;" edge="1" parent="auY5hM0ON-7llxalfGHz-68" source="auY5hM0ON-7llxalfGHz-69" target="auY5hM0ON-7llxalfGHz-69">
          <mxGeometry relative="1" as="geometry" />
        </mxCell>
        <mxCell id="auY5hM0ON-7llxalfGHz-73" value="Cart" style="swimlane;fontStyle=1;align=center;verticalAlign=top;childLayout=stackLayout;horizontal=1;startSize=26;horizontalStack=0;resizeParent=1;resizeParentMax=0;resizeLast=0;collapsible=1;marginBottom=0;whiteSpace=wrap;html=1;labelBackgroundColor=none;fillColor=#FFE45E;strokeColor=#FF6392;fontColor=#5AA9E6;sketch=1;curveFitting=1;jiggle=2;" vertex="1" parent="1">
          <mxGeometry x="1932" y="974" width="260" height="376" as="geometry" />
        </mxCell>
        <mxCell id="auY5hM0ON-7llxalfGHz-74" value="&lt;p class=&quot;MsoNormal&quot;&gt;- LinkedList&amp;lt;pair&amp;lt;T, unsigned int&amp;gt;&amp;gt; cartItems;&lt;/p&gt;" style="text;align=left;verticalAlign=top;spacingLeft=4;spacingRight=4;overflow=hidden;rotatable=0;points=[[0,0.5],[1,0.5]];portConstraint=eastwest;whiteSpace=wrap;html=1;labelBackgroundColor=none;fontColor=#5AA9E6;sketch=1;curveFitting=1;jiggle=2;" vertex="1" parent="auY5hM0ON-7llxalfGHz-73">
          <mxGeometry y="26" width="260" height="49" as="geometry" />
        </mxCell>
        <mxCell id="auY5hM0ON-7llxalfGHz-75" value="" style="line;strokeWidth=1;fillColor=none;align=left;verticalAlign=middle;spacingTop=-1;spacingLeft=3;spacingRight=3;rotatable=0;labelPosition=right;points=[];portConstraint=eastwest;strokeColor=#FF6392;labelBackgroundColor=none;fontColor=#5AA9E6;sketch=1;curveFitting=1;jiggle=2;" vertex="1" parent="auY5hM0ON-7llxalfGHz-73">
          <mxGeometry y="75" width="260" height="8" as="geometry" />
        </mxCell>
        <mxCell id="auY5hM0ON-7llxalfGHz-76" style="edgeStyle=orthogonalEdgeStyle;rounded=0;orthogonalLoop=1;jettySize=auto;html=1;exitX=1;exitY=0.5;exitDx=0;exitDy=0;fontSize=12;startSize=8;endSize=8;curved=1;labelBackgroundColor=none;strokeColor=#FF6392;fontColor=default;sketch=1;curveFitting=1;jiggle=2;" edge="1" parent="auY5hM0ON-7llxalfGHz-73" source="auY5hM0ON-7llxalfGHz-74" target="auY5hM0ON-7llxalfGHz-74">
          <mxGeometry relative="1" as="geometry" />
        </mxCell>
        <mxCell id="auY5hM0ON-7llxalfGHz-77" value="&lt;p class=&quot;MsoNormal&quot;&gt;+ Cart();&lt;/p&gt;&lt;p class=&quot;MsoNormal&quot;&gt;+ ~Cart();&lt;/p&gt;&lt;p class=&quot;MsoNormal&quot;&gt;+ LinkedList&amp;lt;pair&amp;lt;T,unsigned int&amp;gt;&amp;gt;&amp;amp; getCartItems();&lt;/p&gt;&lt;p class=&quot;MsoNormal&quot;&gt;+ void resetCart();&lt;/p&gt;&lt;p class=&quot;MsoNormal&quot;&gt;+ bool isAddToCart();&lt;/p&gt;&lt;p class=&quot;MsoNormal&quot;&gt;+ void addToCart ();&lt;/p&gt;&lt;p class=&quot;MsoNormal&quot;&gt;+ void remove();&lt;/p&gt;&lt;p class=&quot;MsoNormal&quot;&gt;+ void viewCart();&lt;/p&gt;&lt;p class=&quot;MsoNormal&quot;&gt;+ void getItem();&lt;/p&gt;&lt;p class=&quot;MsoNormal&quot;&gt;+ long long calculateTotal();&lt;/p&gt;" style="text;strokeColor=none;fillColor=none;align=left;verticalAlign=top;spacingLeft=4;spacingRight=4;overflow=hidden;rotatable=0;points=[[0,0.5],[1,0.5]];portConstraint=eastwest;whiteSpace=wrap;html=1;labelBackgroundColor=none;fontColor=#5AA9E6;sketch=1;curveFitting=1;jiggle=2;" vertex="1" parent="auY5hM0ON-7llxalfGHz-73">
          <mxGeometry y="83" width="260" height="293" as="geometry" />
        </mxCell>
        <mxCell id="auY5hM0ON-7llxalfGHz-80" style="edgeStyle=elbowEdgeStyle;rounded=0;orthogonalLoop=1;jettySize=auto;html=1;entryX=1;entryY=0.5;entryDx=0;entryDy=0;fontSize=12;fillColor=#FFE45E;strokeColor=#FF6392;sketch=1;curveFitting=1;jiggle=2;shape=flexArrow;exitX=0;exitY=0.5;exitDx=0;exitDy=0;labelBackgroundColor=none;fontColor=default;" edge="1" parent="1" source="auY5hM0ON-7llxalfGHz-103" target="Q2bhWkMLcRi6aNMs0Omj-32">
          <mxGeometry relative="1" as="geometry">
            <mxPoint x="995.2999999999997" y="814.5699999999999" as="sourcePoint" />
          </mxGeometry>
        </mxCell>
        <mxCell id="auY5hM0ON-7llxalfGHz-81" style="edgeStyle=elbowEdgeStyle;rounded=0;orthogonalLoop=1;jettySize=auto;html=1;fontSize=12;fillColor=#FFE45E;strokeColor=#FF6392;sketch=1;curveFitting=1;jiggle=2;shape=flexArrow;labelBackgroundColor=none;fontColor=default;entryX=0.009;entryY=0.772;entryDx=0;entryDy=0;entryPerimeter=0;exitX=1;exitY=0.5;exitDx=0;exitDy=0;" edge="1" parent="1" source="auY5hM0ON-7llxalfGHz-103" target="Q2bhWkMLcRi6aNMs0Omj-2">
          <mxGeometry relative="1" as="geometry">
            <mxPoint x="1254" y="792" as="sourcePoint" />
          </mxGeometry>
        </mxCell>
        <mxCell id="auY5hM0ON-7llxalfGHz-82" style="edgeStyle=elbowEdgeStyle;rounded=0;orthogonalLoop=1;jettySize=auto;html=1;fontSize=12;strokeColor=#FF6392;fillColor=#FFE45E;sketch=1;curveFitting=1;jiggle=2;shape=flexArrow;labelBackgroundColor=none;fontColor=default;entryX=0.994;entryY=0.255;entryDx=0;entryDy=0;entryPerimeter=0;exitX=0.003;exitY=0.253;exitDx=0;exitDy=0;exitPerimeter=0;" edge="1" parent="1" source="auY5hM0ON-7llxalfGHz-103" target="Q2bhWkMLcRi6aNMs0Omj-16">
          <mxGeometry relative="1" as="geometry">
            <mxPoint x="995.8199999999997" y="772.6020000000001" as="sourcePoint" />
            <mxPoint x="367.0000000000002" y="165" as="targetPoint" />
          </mxGeometry>
        </mxCell>
        <mxCell id="auY5hM0ON-7llxalfGHz-84" style="edgeStyle=elbowEdgeStyle;rounded=0;orthogonalLoop=1;jettySize=auto;html=1;fontSize=12;fillColor=#FFE45E;strokeColor=#FF6392;sketch=1;curveFitting=1;jiggle=2;shape=flexArrow;labelBackgroundColor=none;fontColor=default;exitX=0.007;exitY=0.757;exitDx=0;exitDy=0;exitPerimeter=0;" edge="1" parent="1" source="auY5hM0ON-7llxalfGHz-103" target="Q2bhWkMLcRi6aNMs0Omj-27">
          <mxGeometry relative="1" as="geometry">
            <mxPoint x="995" y="841" as="sourcePoint" />
          </mxGeometry>
        </mxCell>
        <mxCell id="auY5hM0ON-7llxalfGHz-85" style="edgeStyle=elbowEdgeStyle;rounded=0;orthogonalLoop=1;jettySize=auto;html=1;fontSize=12;fillColor=#FFE45E;strokeColor=#FF6392;sketch=1;curveFitting=1;jiggle=2;shape=flexArrow;exitX=0.991;exitY=0.845;exitDx=0;exitDy=0;exitPerimeter=0;labelBackgroundColor=none;fontColor=default;entryX=0.004;entryY=0.028;entryDx=0;entryDy=0;entryPerimeter=0;" edge="1" parent="1" source="Q2bhWkMLcRi6aNMs0Omj-16" target="Q2bhWkMLcRi6aNMs0Omj-4">
          <mxGeometry relative="1" as="geometry" />
        </mxCell>
        <mxCell id="auY5hM0ON-7llxalfGHz-86" style="edgeStyle=orthogonalEdgeStyle;rounded=0;orthogonalLoop=1;jettySize=auto;html=1;fontSize=12;elbow=vertical;fillColor=#FFE45E;strokeColor=#FF6392;sketch=1;curveFitting=1;jiggle=2;shape=flexArrow;exitX=0.993;exitY=0.248;exitDx=0;exitDy=0;exitPerimeter=0;labelBackgroundColor=none;fontColor=default;" edge="1" parent="1" source="Q2bhWkMLcRi6aNMs0Omj-20" target="auY5hM0ON-7llxalfGHz-69">
          <mxGeometry relative="1" as="geometry" />
        </mxCell>
        <mxCell id="auY5hM0ON-7llxalfGHz-87" style="edgeStyle=elbowEdgeStyle;rounded=0;orthogonalLoop=1;jettySize=auto;html=1;fontSize=12;fillColor=#FFE45E;strokeColor=#FF6392;sketch=1;curveFitting=1;jiggle=2;shape=flexArrow;exitX=0.99;exitY=0.842;exitDx=0;exitDy=0;exitPerimeter=0;labelBackgroundColor=none;fontColor=default;entryX=0.004;entryY=0.175;entryDx=0;entryDy=0;entryPerimeter=0;" edge="1" parent="1" source="Q2bhWkMLcRi6aNMs0Omj-27" target="Q2bhWkMLcRi6aNMs0Omj-2">
          <mxGeometry relative="1" as="geometry">
            <Array as="points">
              <mxPoint x="744" y="1259" />
            </Array>
          </mxGeometry>
        </mxCell>
        <mxCell id="auY5hM0ON-7llxalfGHz-89" style="edgeStyle=elbowEdgeStyle;rounded=0;orthogonalLoop=1;jettySize=auto;html=1;fontSize=12;startSize=8;endSize=8;elbow=vertical;fillColor=#FFE45E;strokeColor=#FF6392;sketch=1;curveFitting=1;jiggle=2;labelBackgroundColor=none;fontColor=default;" edge="1" parent="1" source="auY5hM0ON-7llxalfGHz-74" target="Q2bhWkMLcRi6aNMs0Omj-2">
          <mxGeometry relative="1" as="geometry" />
        </mxCell>
        <mxCell id="auY5hM0ON-7llxalfGHz-91" style="edgeStyle=orthogonalEdgeStyle;rounded=0;orthogonalLoop=1;jettySize=auto;html=1;fontSize=12;elbow=vertical;fillColor=#FFE45E;strokeColor=#FF6392;sketch=1;curveFitting=1;jiggle=2;shape=flexArrow;entryX=1.001;entryY=0.113;entryDx=0;entryDy=0;entryPerimeter=0;exitX=-0.012;exitY=0.8;exitDx=0;exitDy=0;exitPerimeter=0;labelBackgroundColor=none;fontColor=default;" edge="1" parent="1" source="auY5hM0ON-7llxalfGHz-74" target="auY5hM0ON-7llxalfGHz-71">
          <mxGeometry relative="1" as="geometry">
            <mxPoint x="1995" y="902" as="sourcePoint" />
            <mxPoint x="614.0049999999998" y="600.005" as="targetPoint" />
          </mxGeometry>
        </mxCell>
        <mxCell id="auY5hM0ON-7llxalfGHz-92" style="edgeStyle=elbowEdgeStyle;rounded=0;orthogonalLoop=1;jettySize=auto;html=1;fontSize=12;elbow=vertical;fillColor=#FFE45E;strokeColor=#FF6392;sketch=1;curveFitting=1;jiggle=2;shape=flexArrow;labelBackgroundColor=none;fontColor=default;" edge="1" parent="1" source="Q2bhWkMLcRi6aNMs0Omj-2" target="Q2bhWkMLcRi6aNMs0Omj-42">
          <mxGeometry relative="1" as="geometry" />
        </mxCell>
        <mxCell id="auY5hM0ON-7llxalfGHz-95" style="edgeStyle=elbowEdgeStyle;rounded=0;sketch=1;hachureGap=4;jiggle=2;curveFitting=1;orthogonalLoop=1;jettySize=auto;html=1;fontFamily=Architects Daughter;fontSource=https%3A%2F%2Ffonts.googleapis.com%2Fcss%3Ffamily%3DArchitects%2BDaughter;fontSize=12;elbow=vertical;shape=flexArrow;fillColor=#FFE45E;strokeColor=#FF6392;labelBackgroundColor=none;fontColor=default;exitX=0.492;exitY=0.994;exitDx=0;exitDy=0;exitPerimeter=0;entryX=0.5;entryY=0;entryDx=0;entryDy=0;" edge="1" parent="1" source="Q2bhWkMLcRi6aNMs0Omj-20" target="Q2bhWkMLcRi6aNMs0Omj-46">
          <mxGeometry relative="1" as="geometry">
            <mxPoint x="115" y="580" as="sourcePoint" />
            <mxPoint x="1300.5" y="1170" as="targetPoint" />
            <Array as="points">
              <mxPoint x="893" y="1103" />
            </Array>
          </mxGeometry>
        </mxCell>
        <mxCell id="auY5hM0ON-7llxalfGHz-9" style="edgeStyle=orthogonalEdgeStyle;rounded=0;orthogonalLoop=1;jettySize=auto;html=1;exitX=1;exitY=0.5;exitDx=0;exitDy=0;fontSize=12;startSize=8;endSize=8;curved=1;labelBackgroundColor=none;strokeColor=#FF6392;fontColor=default;sketch=1;curveFitting=1;jiggle=2;" edge="1" parent="1">
          <mxGeometry relative="1" as="geometry">
            <mxPoint x="1254" y="792" as="sourcePoint" />
            <mxPoint x="1254" y="792" as="targetPoint" />
          </mxGeometry>
        </mxCell>
        <mxCell id="auY5hM0ON-7llxalfGHz-102" value="FileManager" style="swimlane;fontStyle=1;align=center;verticalAlign=top;childLayout=stackLayout;horizontal=1;startSize=26;horizontalStack=0;resizeParent=1;resizeParentMax=0;resizeLast=0;collapsible=1;marginBottom=0;whiteSpace=wrap;html=1;sketch=1;hachureGap=4;jiggle=2;curveFitting=1;strokeColor=#FF6392;fontFamily=Architects Daughter;fontSource=https%3A%2F%2Ffonts.googleapis.com%2Fcss%3Ffamily%3DArchitects%2BDaughter;fontColor=#5AA9E6;fillColor=#FFE45E;labelBackgroundColor=none;" vertex="1" parent="1">
          <mxGeometry x="995" y="675" width="260" height="174" as="geometry" />
        </mxCell>
        <mxCell id="auY5hM0ON-7llxalfGHz-103" value="&lt;p style=&quot;font-family: Helvetica;&quot; class=&quot;MsoNormal&quot;&gt;+ static vector&amp;lt;Customer*&amp;gt; loadFromFile();&lt;/p&gt;&lt;p style=&quot;font-family: Helvetica;&quot; class=&quot;MsoNormal&quot;&gt;&lt;span style=&quot;background-color: initial;&quot;&gt;+ static void saveToFile();&lt;/span&gt;&lt;/p&gt;&lt;p style=&quot;font-family: Helvetica;&quot; class=&quot;MsoNormal&quot;&gt;+ static void saveToFileDog();&lt;/p&gt;&lt;p style=&quot;font-family: Helvetica;&quot; class=&quot;MsoNormal&quot;&gt;+ static void saveToFileCat();&lt;/p&gt;" style="text;align=left;verticalAlign=top;spacingLeft=4;spacingRight=4;overflow=hidden;rotatable=0;points=[[0,0.5],[1,0.5]];portConstraint=eastwest;whiteSpace=wrap;html=1;fontFamily=Architects Daughter;fontSource=https%3A%2F%2Ffonts.googleapis.com%2Fcss%3Ffamily%3DArchitects%2BDaughter;fontColor=#5AA9E6;labelBackgroundColor=none;" vertex="1" parent="auY5hM0ON-7llxalfGHz-102">
          <mxGeometry y="26" width="260" height="140" as="geometry" />
        </mxCell>
        <mxCell id="auY5hM0ON-7llxalfGHz-104" value="" style="line;strokeWidth=1;fillColor=none;align=left;verticalAlign=middle;spacingTop=-1;spacingLeft=3;spacingRight=3;rotatable=0;labelPosition=right;points=[];portConstraint=eastwest;strokeColor=#FF6392;sketch=1;hachureGap=4;jiggle=2;curveFitting=1;fontFamily=Architects Daughter;fontSource=https%3A%2F%2Ffonts.googleapis.com%2Fcss%3Ffamily%3DArchitects%2BDaughter;fontColor=#5AA9E6;labelBackgroundColor=none;" vertex="1" parent="auY5hM0ON-7llxalfGHz-102">
          <mxGeometry y="166" width="260" height="8" as="geometry" />
        </mxCell>
        <mxCell id="auY5hM0ON-7llxalfGHz-106" style="edgeStyle=orthogonalEdgeStyle;rounded=0;orthogonalLoop=1;jettySize=auto;html=1;exitX=1;exitY=0.5;exitDx=0;exitDy=0;sketch=1;hachureGap=4;jiggle=2;curveFitting=1;strokeColor=#FF6392;fontFamily=Architects Daughter;fontSource=https%3A%2F%2Ffonts.googleapis.com%2Fcss%3Ffamily%3DArchitects%2BDaughter;fontSize=12;fontColor=default;startSize=8;endSize=8;curved=1;fillColor=#FFE45E;labelBackgroundColor=none;" edge="1" parent="auY5hM0ON-7llxalfGHz-102" source="auY5hM0ON-7llxalfGHz-103" target="auY5hM0ON-7llxalfGHz-103">
          <mxGeometry relative="1" as="geometry" />
        </mxCell>
      </root>
    </mxGraphModel>
  </diagram>
</mxfile>
